<svg width="105" height="40" viewBox="0 0 105 40" fill="none" xmlns="http://www.w3.org/2000/svg">
<path d="M14.667 21.6664C22 21.6664 25.1715 17.0336 27.5 13.3336" stroke="#00D3BB" stroke-width="4" stroke-linecap="round" stroke-linejoin="round"/>
<path d="M22 13.3336H27.5L29.333 18.3336" stroke="#00D3BB" stroke-width="4" stroke-linecap="round" stroke-linejoin="round"/>
<path d="M24.933 28.3336L29.333 33.3336M5.5 6.6664H38.5M19.067 28.3336L14.667 33.3336M34.833 28.3336H9.16696C8.92609 28.3337 8.68757 28.2907 8.46501 28.2069C8.24246 28.1232 8.04024 28.0004 7.86992 27.8455C7.69961 27.6907 7.56453 27.5069 7.4724 27.3045C7.38028 27.1022 7.33292 26.8854 7.33304 26.6664V6.6664H36.667V26.6664C36.6671 26.8854 36.6197 27.1022 36.5276 27.3045C36.4355 27.5069 36.3004 27.6907 36.1301 27.8455C35.9598 28.0004 35.7575 28.1232 35.535 28.2069C35.3124 28.2907 35.0739 28.3337 34.833 28.3336Z" stroke="#605DFF" stroke-width="4" stroke-linecap="round" stroke-linejoin="round"/>
<path d="M46.7585 17.5V8.77273H50.2017C50.8608 8.77273 51.4233 8.89062 51.8892 9.12642C52.358 9.35937 52.7145 9.69034 52.9588 10.1193C53.206 10.5455 53.3295 11.0469 53.3295 11.6236C53.3295 12.2031 53.2045 12.7017 52.9545 13.1193C52.7045 13.5341 52.3423 13.8523 51.8679 14.0739C51.3963 14.2955 50.8253 14.4062 50.1548 14.4062H47.8494V12.9233H49.8565C50.2088 12.9233 50.5014 12.875 50.7344 12.7784C50.9673 12.6818 51.1406 12.5369 51.2543 12.3438C51.3707 12.1506 51.429 11.9105 51.429 11.6236C51.429 11.3338 51.3707 11.0895 51.2543 10.8906C51.1406 10.6918 50.9659 10.5412 50.7301 10.4389C50.4972 10.3338 50.2031 10.2812 49.848 10.2812H48.6037V17.5H46.7585ZM51.4716 13.5284L53.6406 17.5H51.6037L49.4815 13.5284H51.4716ZM57.4513 17.6278C56.7894 17.6278 56.217 17.4872 55.734 17.206C55.2539 16.9219 54.8832 16.527 54.6218 16.0213C54.3604 15.5128 54.2298 14.9233 54.2298 14.2528C54.2298 13.5767 54.3604 12.9858 54.6218 12.4801C54.8832 11.9716 55.2539 11.5767 55.734 11.2955C56.217 11.0114 56.7894 10.8693 57.4513 10.8693C58.1133 10.8693 58.6843 11.0114 59.1644 11.2955C59.6474 11.5767 60.0195 11.9716 60.2809 12.4801C60.5423 12.9858 60.6729 13.5767 60.6729 14.2528C60.6729 14.9233 60.5423 15.5128 60.2809 16.0213C60.0195 16.527 59.6474 16.9219 59.1644 17.206C58.6843 17.4872 58.1133 17.6278 57.4513 17.6278ZM57.4599 16.2216C57.761 16.2216 58.0124 16.1364 58.2141 15.9659C58.4158 15.7926 58.5678 15.5568 58.6701 15.2585C58.7752 14.9602 58.8278 14.6207 58.8278 14.2401C58.8278 13.8594 58.7752 13.5199 58.6701 13.2216C58.5678 12.9233 58.4158 12.6875 58.2141 12.5142C58.0124 12.3409 57.761 12.2543 57.4599 12.2543C57.1559 12.2543 56.9002 12.3409 56.6928 12.5142C56.4883 12.6875 56.3335 12.9233 56.2283 13.2216C56.1261 13.5199 56.0749 13.8594 56.0749 14.2401C56.0749 14.6207 56.1261 14.9602 56.2283 15.2585C56.3335 15.5568 56.4883 15.7926 56.6928 15.9659C56.9002 16.1364 57.1559 16.2216 57.4599 16.2216ZM62.7631 19.9545C62.533 19.9545 62.3171 19.9361 62.1154 19.8991C61.9165 19.8651 61.7518 19.821 61.6211 19.767L62.0302 18.4119C62.2433 18.4773 62.435 18.5128 62.6055 18.5185C62.7788 18.5241 62.9279 18.4844 63.0529 18.3991C63.1808 18.3139 63.2844 18.169 63.364 17.9645L63.4705 17.6875L61.1225 10.9545H63.0316L64.3867 15.7614H64.4549L65.8228 10.9545H67.7447L65.2006 18.2074C65.0785 18.5597 64.9123 18.8665 64.7021 19.1278C64.4947 19.392 64.2319 19.5952 63.9137 19.7372C63.5955 19.8821 63.212 19.9545 62.7631 19.9545ZM71.4201 17.6278C70.7582 17.6278 70.1857 17.4872 69.7028 17.206C69.2227 16.9219 68.8519 16.527 68.5906 16.0213C68.3292 15.5128 68.1985 14.9233 68.1985 14.2528C68.1985 13.5767 68.3292 12.9858 68.5906 12.4801C68.8519 11.9716 69.2227 11.5767 69.7028 11.2955C70.1857 11.0114 70.7582 10.8693 71.4201 10.8693C72.082 10.8693 72.6531 11.0114 73.1332 11.2955C73.6161 11.5767 73.9883 11.9716 74.2496 12.4801C74.511 12.9858 74.6417 13.5767 74.6417 14.2528C74.6417 14.9233 74.511 15.5128 74.2496 16.0213C73.9883 16.527 73.6161 16.9219 73.1332 17.206C72.6531 17.4872 72.082 17.6278 71.4201 17.6278ZM71.4286 16.2216C71.7298 16.2216 71.9812 16.1364 72.1829 15.9659C72.3846 15.7926 72.5366 15.5568 72.6388 15.2585C72.744 14.9602 72.7965 14.6207 72.7965 14.2401C72.7965 13.8594 72.744 13.5199 72.6388 13.2216C72.5366 12.9233 72.3846 12.6875 72.1829 12.5142C71.9812 12.3409 71.7298 12.2543 71.4286 12.2543C71.1246 12.2543 70.869 12.3409 70.6616 12.5142C70.457 12.6875 70.3022 12.9233 70.1971 13.2216C70.0948 13.5199 70.0437 13.8594 70.0437 14.2401C70.0437 14.6207 70.0948 14.9602 70.1971 15.2585C70.3022 15.5568 70.457 15.7926 70.6616 15.9659C70.869 16.1364 71.1246 16.2216 71.4286 16.2216ZM77.6374 8.77273V17.5H75.8221V8.77273H77.6374ZM82.5732 10.9545V12.3182H78.6314V10.9545H82.5732ZM79.5263 9.38636H81.3416V15.4886C81.3416 15.6562 81.3672 15.7869 81.4183 15.8807C81.4695 15.9716 81.5405 16.0355 81.6314 16.0724C81.7251 16.1094 81.8331 16.1278 81.9553 16.1278C82.0405 16.1278 82.1257 16.1207 82.2109 16.1065C82.2962 16.0895 82.3615 16.0767 82.407 16.0682L82.6925 17.419C82.6016 17.4474 82.4737 17.4801 82.3089 17.517C82.1442 17.5568 81.9439 17.581 81.7081 17.5895C81.2706 17.6065 80.8871 17.5483 80.5575 17.4148C80.2308 17.2812 79.9766 17.0739 79.7947 16.7926C79.6129 16.5114 79.5234 16.1562 79.5263 15.7273V9.38636ZM86.6683 17.6278C85.995 17.6278 85.4155 17.4915 84.9297 17.2188C84.4467 16.9432 84.0746 16.554 83.8132 16.0511C83.5518 15.5455 83.4212 14.9474 83.4212 14.2571C83.4212 13.5838 83.5518 12.9929 83.8132 12.4844C84.0746 11.9759 84.4425 11.5795 84.9169 11.2955C85.3942 11.0114 85.9538 10.8693 86.5959 10.8693C87.0277 10.8693 87.4297 10.9389 87.8018 11.0781C88.1768 11.2145 88.5036 11.4205 88.782 11.696C89.0632 11.9716 89.282 12.3182 89.4382 12.7358C89.5945 13.1506 89.6726 13.6364 89.6726 14.1932V14.6918H84.1456V13.5668H87.9638C87.9638 13.3054 87.907 13.0739 87.7933 12.8722C87.6797 12.6705 87.522 12.5128 87.3203 12.3991C87.1214 12.2827 86.8899 12.2244 86.6257 12.2244C86.3501 12.2244 86.1058 12.2884 85.8928 12.4162C85.6825 12.5412 85.5178 12.7102 85.3984 12.9233C85.2791 13.1335 85.218 13.3679 85.2152 13.6264V14.696C85.2152 15.0199 85.2749 15.2997 85.3942 15.5355C85.5163 15.7713 85.6882 15.9531 85.9098 16.081C86.1314 16.2088 86.3942 16.2727 86.6982 16.2727C86.8999 16.2727 87.0845 16.2443 87.2521 16.1875C87.4197 16.1307 87.5632 16.0455 87.6825 15.9318C87.8018 15.8182 87.8928 15.679 87.9553 15.5142L89.6342 15.625C89.549 16.0284 89.3743 16.3807 89.1101 16.6818C88.8487 16.9801 88.5107 17.2131 88.0959 17.3807C87.6839 17.5455 87.2081 17.6278 86.6683 17.6278ZM93.8146 17.6278C93.1442 17.6278 92.5675 17.4858 92.0845 17.2017C91.6044 16.9148 91.2351 16.517 90.9766 16.0085C90.7209 15.5 90.593 14.9148 90.593 14.2528C90.593 13.5824 90.7223 12.9943 90.9808 12.4886C91.2422 11.9801 91.6129 11.5838 92.093 11.2997C92.5732 11.0128 93.1442 10.8693 93.8061 10.8693C94.3771 10.8693 94.8771 10.973 95.3061 11.1804C95.7351 11.3878 96.0746 11.679 96.3246 12.054C96.5746 12.429 96.7124 12.8693 96.7379 13.375H95.0249C94.9766 13.0483 94.8487 12.7855 94.6413 12.5866C94.4368 12.3849 94.1683 12.2841 93.8359 12.2841C93.5547 12.2841 93.3089 12.3608 93.0987 12.5142C92.8913 12.6648 92.7294 12.8849 92.6129 13.1747C92.4964 13.4645 92.4382 13.8153 92.4382 14.2273C92.4382 14.6449 92.495 15 92.6087 15.2926C92.7251 15.5852 92.8885 15.8082 93.0987 15.9616C93.3089 16.1151 93.5547 16.1918 93.8359 16.1918C94.0433 16.1918 94.2294 16.1491 94.3942 16.0639C94.5618 15.9787 94.6996 15.8551 94.8075 15.6932C94.9183 15.5284 94.9908 15.331 95.0249 15.1009H96.7379C96.7095 15.6009 96.5732 16.0412 96.3288 16.4219C96.0874 16.7997 95.7536 17.0952 95.3274 17.3082C94.9013 17.5213 94.397 17.6278 93.8146 17.6278ZM99.7156 13.7159V17.5H97.9002V8.77273H99.6644V12.1094H99.7411C99.8888 11.723 100.127 11.4205 100.457 11.2017C100.787 10.9801 101.2 10.8693 101.697 10.8693C102.152 10.8693 102.548 10.9688 102.886 11.1676C103.227 11.3636 103.491 11.6463 103.679 12.0156C103.869 12.3821 103.963 12.821 103.96 13.3324V17.5H102.145V13.6562C102.147 13.2528 102.045 12.9389 101.838 12.7145C101.633 12.4901 101.346 12.3778 100.977 12.3778C100.73 12.3778 100.511 12.4304 100.321 12.5355C100.133 12.6406 99.9854 12.794 99.8775 12.9957C99.7724 13.1946 99.7184 13.4347 99.7156 13.7159Z" fill="#605DFF"/>
<path d="M51.2422 25.6016C51.2005 25.2318 51.0286 24.9453 50.7266 24.7422C50.4245 24.5365 50.0443 24.4336 49.5859 24.4336C49.2578 24.4336 48.974 24.4857 48.7344 24.5898C48.4948 24.6914 48.3086 24.832 48.1758 25.0117C48.0456 25.1888 47.9805 25.3906 47.9805 25.6172C47.9805 25.8073 48.0247 25.9714 48.1133 26.1094C48.2044 26.2474 48.3229 26.3633 48.4688 26.457C48.6172 26.5482 48.776 26.625 48.9453 26.6875C49.1146 26.7474 49.2773 26.7969 49.4336 26.8359L50.2148 27.0391C50.4701 27.1016 50.7318 27.1862 51 27.293C51.2682 27.3997 51.5169 27.5404 51.7461 27.7148C51.9753 27.8893 52.1602 28.1055 52.3008 28.3633C52.444 28.6211 52.5156 28.9297 52.5156 29.2891C52.5156 29.7422 52.3984 30.1445 52.1641 30.4961C51.9323 30.8477 51.5951 31.125 51.1523 31.3281C50.7122 31.5313 50.1797 31.6328 49.5547 31.6328C48.9557 31.6328 48.4375 31.5378 48 31.3477C47.5625 31.1576 47.2201 30.888 46.9727 30.5391C46.7253 30.1875 46.5885 29.7708 46.5625 29.2891H47.7734C47.7969 29.5781 47.8906 29.819 48.0547 30.0117C48.2214 30.2018 48.4336 30.3437 48.6914 30.4375C48.9518 30.5286 49.237 30.5742 49.5469 30.5742C49.888 30.5742 50.1914 30.5208 50.457 30.4141C50.7253 30.3047 50.9362 30.1536 51.0898 29.9609C51.2435 29.7656 51.3203 29.5378 51.3203 29.2773C51.3203 29.0404 51.2526 28.8464 51.1172 28.6953C50.9844 28.5443 50.8034 28.4193 50.5742 28.3203C50.3477 28.2214 50.0911 28.1341 49.8047 28.0586L48.8594 27.8008C48.2188 27.6263 47.7109 27.3698 47.3359 27.0312C46.9635 26.6927 46.7773 26.2448 46.7773 25.6875C46.7773 25.2266 46.9023 24.8242 47.1523 24.4805C47.4023 24.1367 47.7409 23.8698 48.168 23.6797C48.5951 23.487 49.0768 23.3906 49.6133 23.3906C50.1549 23.3906 50.6328 23.4857 51.0469 23.6758C51.4635 23.8659 51.7917 24.1276 52.0313 24.4609C52.2708 24.7917 52.3958 25.1719 52.4063 25.6016H51.2422ZM56.3916 31.6211C55.8291 31.6211 55.3382 31.4922 54.9189 31.2344C54.4997 30.9766 54.1742 30.6159 53.9424 30.1523C53.7106 29.6888 53.5947 29.1471 53.5947 28.5273C53.5947 27.9049 53.7106 27.3607 53.9424 26.8945C54.1742 26.4284 54.4997 26.0664 54.9189 25.8086C55.3382 25.5508 55.8291 25.4219 56.3916 25.4219C56.9541 25.4219 57.445 25.5508 57.8643 25.8086C58.2835 26.0664 58.609 26.4284 58.8408 26.8945C59.0726 27.3607 59.1885 27.9049 59.1885 28.5273C59.1885 29.1471 59.0726 29.6888 58.8408 30.1523C58.609 30.6159 58.2835 30.9766 57.8643 31.2344C57.445 31.4922 56.9541 31.6211 56.3916 31.6211ZM56.3955 30.6406C56.7601 30.6406 57.0622 30.5443 57.3018 30.3516C57.5413 30.1589 57.7184 29.9023 57.833 29.582C57.9502 29.2617 58.0088 28.9089 58.0088 28.5234C58.0088 28.1406 57.9502 27.7891 57.833 27.4687C57.7184 27.1458 57.5413 26.8867 57.3018 26.6914C57.0622 26.4961 56.7601 26.3984 56.3955 26.3984C56.0283 26.3984 55.7236 26.4961 55.4814 26.6914C55.2419 26.8867 55.0635 27.1458 54.9463 27.4687C54.8317 27.7891 54.7744 28.1406 54.7744 28.5234C54.7744 28.9089 54.8317 29.2617 54.9463 29.582C55.0635 29.9023 55.2419 30.1589 55.4814 30.3516C55.7236 30.5443 56.0283 30.6406 56.3955 30.6406ZM61.6602 23.5V31.5H60.4922V23.5H61.6602ZM67.0322 29.0117V25.5H68.2041V31.5H67.0557V30.4609H66.9932C66.8551 30.7813 66.6338 31.0482 66.3291 31.2617C66.027 31.4727 65.6507 31.5781 65.2002 31.5781C64.8148 31.5781 64.4736 31.4935 64.1768 31.3242C63.8825 31.1523 63.6507 30.8984 63.4814 30.5625C63.3148 30.2266 63.2314 29.8112 63.2314 29.3164V25.5H64.3994V29.1758C64.3994 29.5846 64.5127 29.9102 64.7393 30.1523C64.9658 30.3945 65.2601 30.5156 65.6221 30.5156C65.8408 30.5156 66.0583 30.4609 66.2744 30.3516C66.4932 30.2422 66.6742 30.0768 66.8174 29.8555C66.9632 29.6341 67.0348 29.3529 67.0322 29.0117ZM72.5742 25.5V26.4375H69.2969V25.5H72.5742ZM70.1758 24.0625H71.3438V29.7383C71.3438 29.9648 71.3776 30.1354 71.4453 30.25C71.513 30.362 71.6003 30.4388 71.707 30.4805C71.8164 30.5195 71.9349 30.5391 72.0625 30.5391C72.1563 30.5391 72.2383 30.5326 72.3086 30.5195C72.3789 30.5065 72.4336 30.4961 72.4727 30.4883L72.6836 31.4531C72.6159 31.4792 72.5195 31.5052 72.3945 31.5313C72.2695 31.5599 72.1133 31.5755 71.9258 31.5781C71.6185 31.5833 71.332 31.5286 71.0664 31.4141C70.8008 31.2995 70.5859 31.1224 70.4219 30.8828C70.2578 30.6432 70.1758 30.3424 70.1758 29.9805V24.0625ZM73.8662 31.5V25.5H75.0342V31.5H73.8662ZM74.4561 24.5742C74.2529 24.5742 74.0785 24.5065 73.9326 24.3711C73.7894 24.2331 73.7178 24.069 73.7178 23.8789C73.7178 23.6862 73.7894 23.5221 73.9326 23.3867C74.0785 23.2487 74.2529 23.1797 74.4561 23.1797C74.6592 23.1797 74.8324 23.2487 74.9756 23.3867C75.1214 23.5221 75.1943 23.6862 75.1943 23.8789C75.1943 24.069 75.1214 24.2331 74.9756 24.3711C74.8324 24.5065 74.6592 24.5742 74.4561 24.5742ZM79.1328 31.6211C78.5703 31.6211 78.0794 31.4922 77.6602 31.2344C77.2409 30.9766 76.9154 30.6159 76.6836 30.1523C76.4518 29.6888 76.3359 29.1471 76.3359 28.5273C76.3359 27.9049 76.4518 27.3607 76.6836 26.8945C76.9154 26.4284 77.2409 26.0664 77.6602 25.8086C78.0794 25.5508 78.5703 25.4219 79.1328 25.4219C79.6953 25.4219 80.1862 25.5508 80.6055 25.8086C81.0247 26.0664 81.3503 26.4284 81.582 26.8945C81.8138 27.3607 81.9297 27.9049 81.9297 28.5273C81.9297 29.1471 81.8138 29.6888 81.582 30.1523C81.3503 30.6159 81.0247 30.9766 80.6055 31.2344C80.1862 31.4922 79.6953 31.6211 79.1328 31.6211ZM79.1367 30.6406C79.5013 30.6406 79.8034 30.5443 80.043 30.3516C80.2826 30.1589 80.4596 29.9023 80.5742 29.582C80.6914 29.2617 80.75 28.9089 80.75 28.5234C80.75 28.1406 80.6914 27.7891 80.5742 27.4687C80.4596 27.1458 80.2826 26.8867 80.043 26.6914C79.8034 26.4961 79.5013 26.3984 79.1367 26.3984C78.7695 26.3984 78.4648 26.4961 78.2227 26.6914C77.9831 26.8867 77.8047 27.1458 77.6875 27.4687C77.5729 27.7891 77.5156 28.1406 77.5156 28.5234C77.5156 28.9089 77.5729 29.2617 77.6875 29.582C77.8047 29.9023 77.9831 30.1589 78.2227 30.3516C78.4648 30.5443 78.7695 30.6406 79.1367 30.6406ZM84.4014 27.9375V31.5H83.2334V25.5H84.3545V26.4766H84.4287C84.5667 26.1589 84.7829 25.9036 85.0771 25.7109C85.374 25.5182 85.7477 25.4219 86.1982 25.4219C86.6071 25.4219 86.9652 25.5078 87.2725 25.6797C87.5798 25.849 87.818 26.1016 87.9873 26.4375C88.1566 26.7734 88.2412 27.1888 88.2412 27.6836V31.5H87.0732V27.8242C87.0732 27.3893 86.96 27.0495 86.7334 26.8047C86.5068 26.5573 86.1956 26.4336 85.7998 26.4336C85.529 26.4336 85.2881 26.4922 85.0771 26.6094C84.8688 26.7266 84.7035 26.8984 84.5811 27.125C84.4613 27.349 84.4014 27.6198 84.4014 27.9375Z" fill="#B2B2B2"/>
</svg>
